<svg width="48" height="48" viewBox="0 0 48 48" fill="none" xmlns="http://www.w3.org/2000/svg">
<path d="M47.4997 23.8482C47.4997 36.6158 36.9857 46.9792 23.9997 46.9792C11.0137 46.9792 0.499695 36.6158 0.499695 23.8482C0.499695 11.0806 11.0137 0.717255 23.9997 0.717255C36.9857 0.717255 47.4997 11.0806 47.4997 23.8482Z" fill="url(#paint0_linear_21_45)" stroke="#4680C2"/>
<path fill-rule="evenodd" clip-rule="evenodd" d="M39.1939 16.3953C39.431 15.6615 39.1939 15.1279 38.1438 15.1279H34.6547C33.774 15.1279 33.3675 15.5948 33.1304 16.0951C33.1304 16.0951 31.3351 20.3644 28.8284 23.1327C28.0154 23.9332 27.6427 24.2 27.2024 24.2C26.9653 24.2 26.6604 23.9332 26.6604 23.1994V16.362C26.6604 15.4948 26.3894 15.0945 25.6442 15.0945H20.1565C19.6145 15.0945 19.2758 15.4948 19.2758 15.895C19.2758 16.7288 20.5291 16.929 20.6646 19.2637V24.3334C20.6646 25.4341 20.4614 25.6342 20.021 25.6342C18.8354 25.6342 15.9561 21.3316 14.2285 16.4287C13.8897 15.4614 13.551 15.0945 12.6703 15.0945H9.14733C8.1311 15.0945 7.96173 15.5615 7.96173 16.0618C7.96173 16.9623 9.14734 21.4984 13.4833 27.502C16.3626 31.6045 20.4614 33.8058 24.1537 33.8058C26.3894 33.8058 26.6604 33.3055 26.6604 32.4717V29.3698C26.6604 28.3692 26.8636 28.2025 27.575 28.2025C28.0831 28.2025 28.9977 28.4693 31.0641 30.4371C33.4353 32.7719 33.8418 33.8392 35.1629 33.8392H38.6519C39.6682 33.8392 40.1424 33.3389 39.8714 32.3716C39.5665 31.4044 38.4148 30.0035 36.9243 28.3359C36.1113 27.402 34.8919 26.368 34.5192 25.8677C34.0111 25.2006 34.1466 24.9338 34.5192 24.3334C34.4854 24.3334 38.7535 18.3965 39.1939 16.3953Z" fill="black"/>
<defs>
<linearGradient id="paint0_linear_21_45" x1="32.0017" y1="8.09581" x2="20.3125" y2="35.7949" gradientUnits="userSpaceOnUse">
<stop stop-color="#EAE6E6"/>
</linearGradient>
</defs>
</svg>
