<svg width="48" height="48" viewBox="0 0 48 48" fill="none" xmlns="http://www.w3.org/2000/svg">
<path d="M47.4997 23.8482C47.4997 36.6158 36.9857 46.9792 23.9997 46.9792C11.0137 46.9792 0.499695 36.6158 0.499695 23.8482C0.499695 11.0806 11.0137 0.717255 23.9997 0.717255C36.9857 0.717255 47.4997 11.0806 47.4997 23.8482Z" fill="url(#paint0_linear_22_23)" stroke="#4680C2"/>
<path d="M18.5397 25.8962C22.7039 25.8962 26.0797 22.5724 26.0797 18.4722C26.0797 14.372 22.7039 11.0481 18.5397 11.0481C14.3755 11.0481 10.9997 14.372 10.9997 18.4722C10.9997 22.5724 14.3755 25.8962 18.5397 25.8962Z" fill="black"/>
<path d="M29.4597 36.6483C33.6239 36.6483 36.9997 33.3245 36.9997 29.2243C36.9997 25.1241 33.6239 21.8002 29.4597 21.8002C25.2955 21.8002 21.9197 25.1241 21.9197 29.2243C21.9197 33.3245 25.2955 36.6483 29.4597 36.6483Z" fill="black"/>
<path d="M23.9997 36.1363C30.8922 36.1363 36.4797 30.6347 36.4797 23.8482C36.4797 17.0617 30.8922 11.5601 23.9997 11.5601C17.1072 11.5601 11.5197 17.0617 11.5197 23.8482C11.5197 30.6347 17.1072 36.1363 23.9997 36.1363Z" fill="black"/>
<path fill-rule="evenodd" clip-rule="evenodd" d="M20.7632 23.6149C20.2753 23.2984 19.8683 22.8753 19.5738 22.3784C19.2893 21.8538 19.1489 21.2651 19.1664 20.6706C19.1447 19.9161 19.4062 19.1803 19.9008 18.6036C20.4147 18.0245 21.0752 17.5898 21.8151 17.3437C22.6201 17.0638 23.4682 16.9233 24.3218 16.9284C24.8805 16.9232 25.4385 16.9654 25.9898 17.0544C26.3842 17.1144 26.7715 17.2129 27.1461 17.3484C27.4901 17.4631 27.8008 17.6585 28.0512 17.9176C28.2357 18.1308 28.3351 18.4028 28.3307 18.6829C28.3374 18.8284 28.3149 18.9737 28.2645 19.1106C28.214 19.2475 28.1367 19.3733 28.0369 19.4808C27.9424 19.5798 27.8277 19.6581 27.7003 19.7104C27.5729 19.7626 27.4357 19.7878 27.2977 19.7841C27.1078 19.7827 26.9204 19.7413 26.7481 19.6627C26.3238 19.4758 25.8868 19.3183 25.4401 19.1915C25.0289 19.0848 24.605 19.0331 24.1797 19.0375C23.6259 19.0173 23.078 19.155 22.6017 19.4341C22.4006 19.5544 22.236 19.7257 22.1251 19.9301C22.0142 20.1345 21.9612 20.3645 21.9715 20.596C21.9686 20.8996 22.0858 21.1925 22.2985 21.4125C22.5513 21.6706 22.8501 21.881 23.1799 22.0331C23.5495 22.2136 24.1008 22.4531 24.8336 22.7517C24.9149 22.777 24.9941 22.8082 25.0706 22.845C25.7857 23.1235 26.4714 23.4704 27.1176 23.8809C27.6281 24.2086 28.0586 24.6437 28.3781 25.1547C28.6925 25.6915 28.85 26.3036 28.833 26.9231C28.8594 27.6819 28.6386 28.4291 28.2027 29.0555C27.7589 29.6484 27.145 30.097 26.4401 30.3433C25.5906 30.642 24.693 30.7859 23.7911 30.768C22.5518 30.8109 21.3184 30.5814 20.1804 30.096C19.8892 29.9685 19.6339 29.7731 19.4365 29.5268C19.2728 29.3012 19.188 29.0294 19.1948 28.7522C19.1866 28.606 19.2108 28.4598 19.2656 28.3236C19.3204 28.1875 19.4045 28.0647 19.5122 27.9636C19.7382 27.7687 20.0317 27.6668 20.332 27.679C20.6661 27.6836 20.9943 27.7668 21.2891 27.9216C21.6555 28.1022 21.9445 28.2375 22.1563 28.3277C22.3983 28.4274 22.6489 28.5055 22.9051 28.5609C23.2209 28.6292 23.5435 28.6621 23.8669 28.6589C24.4385 28.6989 25.0074 28.5495 25.4828 28.2343C25.6608 28.0972 25.8031 27.9203 25.8978 27.7182C25.9926 27.5162 26.0371 27.2948 26.0277 27.0725C26.0284 26.7569 25.9063 26.453 25.6866 26.2232C25.3962 25.9286 25.0564 25.6856 24.6821 25.5047C24.2397 25.2745 23.6173 24.9946 22.815 24.6648C22.0971 24.3832 21.4098 24.0315 20.7632 23.6149" fill="white"/>
<path opacity="0.1" fill-rule="evenodd" clip-rule="evenodd" d="M20.8953 11.422C20.5656 11.3134 20.2285 11.2278 19.8865 11.166C17.8333 11.8148 15.9669 12.9364 14.4421 14.4378C12.9173 15.9391 11.7782 17.7768 11.1193 19.7984C11.182 20.1352 11.2689 20.4671 11.3793 20.7917C11.4715 21.0856 11.588 21.3716 11.7277 21.6468C12.1794 19.1893 13.3824 16.9262 15.1759 15.1603C16.9694 13.3944 19.2678 12.2098 21.7637 11.7651C21.4842 11.6276 21.1938 11.5128 20.8953 11.422Z" fill="black"/>
<path opacity="0.1" fill-rule="evenodd" clip-rule="evenodd" d="M20.8953 11.4219C18.5923 11.9811 16.4885 13.1497 14.8113 14.8011C13.1341 16.4525 11.9473 18.524 11.3793 20.7916C11.4715 21.0855 11.588 21.3714 11.7277 21.6466C12.1794 19.1891 13.3824 16.9261 15.1759 15.1601C16.9694 13.3942 19.2678 12.2097 21.7637 11.7649C21.4842 11.6274 21.1938 11.5127 20.8953 11.4219Z" fill="black"/>
<path opacity="0.1" fill-rule="evenodd" clip-rule="evenodd" d="M36.6201 26.9049C36.5279 26.6109 36.4114 26.325 36.2717 26.0498C35.82 28.5073 34.6169 30.7704 32.8234 32.5363C31.0299 34.3022 28.7315 35.4868 26.2357 35.9315C26.5151 36.069 26.8056 36.1838 27.1041 36.2745C27.4338 36.3832 27.7709 36.4688 28.1129 36.5305C30.1661 35.8818 32.0325 34.7602 33.5573 33.2588C35.082 31.7575 36.2212 29.9198 36.8801 27.8982C36.8173 27.5614 36.7305 27.2295 36.6201 26.9049Z" fill="black"/>
<path opacity="0.1" fill-rule="evenodd" clip-rule="evenodd" d="M36.2717 26.0498C35.82 28.5073 34.6169 30.7704 32.8234 32.5363C31.0299 34.3022 28.7315 35.4868 26.2357 35.9315C26.5151 36.069 26.8056 36.1838 27.1041 36.2745C29.407 35.7153 31.5109 34.5467 33.1881 32.8953C34.8653 31.2439 36.0521 29.1724 36.6201 26.9049C36.5279 26.6109 36.4114 26.325 36.2717 26.0498Z" fill="black"/>
<defs>
<linearGradient id="paint0_linear_22_23" x1="32.0017" y1="8.09581" x2="20.3125" y2="35.7949" gradientUnits="userSpaceOnUse">
<stop stop-color="#EAE6E6"/>
</linearGradient>
</defs>
</svg>
