<svg width="48" height="48" viewBox="0 0 48 48" fill="none" xmlns="http://www.w3.org/2000/svg">
<path d="M47.4997 23.8482C47.4997 36.6158 36.9857 46.9792 23.9997 46.9792C11.0137 46.9792 0.499695 36.6158 0.499695 23.8482C0.499695 11.0806 11.0137 0.717255 23.9997 0.717255C36.9857 0.717255 47.4997 11.0806 47.4997 23.8482Z" fill="url(#paint0_linear_21_46)" stroke="#4680C2"/>
<path d="M36.2647 18.0126C35.9703 16.8989 35.1028 16.022 34.0013 15.7244C32.0051 15.1835 23.9997 15.1835 23.9997 15.1835C23.9997 15.1835 15.9943 15.1835 13.998 15.7244C12.8964 16.022 12.0289 16.8989 11.7345 18.0126C11.1997 20.0309 11.1997 24.242 11.1997 24.242C11.1997 24.242 11.1997 28.4531 11.7345 30.4715C12.0289 31.5852 12.8964 32.4621 13.998 32.7598C15.9943 33.3006 23.9997 33.3006 23.9997 33.3006C23.9997 33.3006 32.0051 33.3006 34.0013 32.7598C35.1028 32.4621 35.9703 31.5852 36.2647 30.4715C36.7997 28.4531 36.7997 24.242 36.7997 24.242C36.7997 24.242 36.7997 20.0309 36.2647 18.0126Z" fill="black"/>
<path d="M21.5997 28.5744V20.6974L27.9997 24.636L21.5997 28.5744Z" fill="#F5F5F5"/>
<defs>
<linearGradient id="paint0_linear_21_46" x1="32.0017" y1="8.09581" x2="20.3125" y2="35.7949" gradientUnits="userSpaceOnUse">
<stop stop-color="#EAE6E6"/>
</linearGradient>
</defs>
</svg>
