<svg width="48" height="48" viewBox="0 0 48 48" fill="none" xmlns="http://www.w3.org/2000/svg">
<path d="M47.4997 23.8482C47.4997 36.6158 36.9857 46.9792 23.9997 46.9792C11.0137 46.9792 0.499695 36.6158 0.499695 23.8482C0.499695 11.0806 11.0137 0.717255 23.9997 0.717255C36.9857 0.717255 47.4997 11.0806 47.4997 23.8482Z" fill="url(#paint0_linear_21_44)" stroke="#4680C2"/>
<path d="M8.93792 25.0041C11.7435 23.4825 14.8753 22.2125 17.8015 20.936C22.8357 18.8453 27.8899 16.7908 32.9951 14.878C33.9884 14.5521 35.7731 14.2335 35.9481 15.6828C35.8522 17.7343 35.4581 19.7739 35.1877 21.8134C34.5014 26.2986 33.7082 30.7684 32.9347 35.2388C32.6682 36.7279 30.7737 37.4987 29.5615 36.5457C26.6483 34.6083 23.7127 32.6896 20.8367 30.7071C19.8946 29.7646 20.7682 28.411 21.6096 27.7379C24.009 25.4097 26.5536 23.4315 28.8276 20.983C29.441 19.5245 27.6286 20.7537 27.0308 21.1303C23.746 23.3591 20.5416 25.724 17.0784 27.6828C15.3094 28.6416 13.2476 27.8222 11.4794 27.2872C9.89398 26.6409 7.57076 25.9897 8.93776 25.0043L8.93792 25.0041Z" fill="black"/>
<defs>
<linearGradient id="paint0_linear_21_44" x1="32.0017" y1="8.09581" x2="20.3125" y2="35.7949" gradientUnits="userSpaceOnUse">
<stop stop-color="#EAE6E6"/>
</linearGradient>
</defs>
</svg>
